<?xml version="1.0" standalone="no"?>
<!DOCTYPE svg PUBLIC "-//W3C//DTD SVG 20010904//EN"
 "http://www.w3.org/TR/2001/REC-SVG-20010904/DTD/svg10.dtd">
<svg version="1.0" xmlns="http://www.w3.org/2000/svg"
 width="513.000000pt" height="513.000000pt" viewBox="0 0 513.000000 513.000000"
 preserveAspectRatio="xMidYMid meet">
<metadata>
Created by potrace 1.11, written by Peter Selinger 2001-2013
</metadata>
<g transform="translate(0.000000,513.000000) scale(0.100000,-0.100000)"
fill="#000000" stroke="none">
<path d="M375 5111 c-89 -27 -110 -37 -169 -80 -64 -48 -115 -108 -150 -177
-58 -116 -55 25 -55 -2279 -1 -1868 1 -2128 15 -2185 8 -36 19 -69 24 -74 6
-6 10 -18 10 -28 0 -10 4 -18 8 -18 5 0 13 -10 19 -23 18 -39 91 -114 146
-151 30 -19 87 -46 128 -60 l74 -25 2130 -1 c2300 0 2174 -3 2298 53 109 49
227 191 265 318 4 13 8 985 10 2159 3 1946 1 2141 -13 2203 -17 69 -37 112
-84 177 -36 49 -87 100 -100 100 -6 0 -11 4 -11 8 0 15 -102 65 -170 83 -61
17 -190 18 -2190 18 -2010 0 -2128 -1 -2185 -18z m995 -1607 c100 -23 168 -61
240 -134 78 -78 121 -161 144 -277 15 -71 16 -138 12 -530 -3 -246 -7 -459
-10 -473 -3 -14 -9 -41 -12 -60 -10 -61 -80 -193 -127 -240 -62 -63 -80 -77
-140 -105 -110 -53 -140 -57 -499 -59 l-298 -2 0 947 0 948 23 3 c12 2 153 2
312 0 213 -2 307 -7 355 -18z m1535 15 c2 -2 5 -79 7 -171 l3 -168 -35 -1
c-19 0 -155 -1 -302 -1 -148 0 -269 -3 -269 -6 -1 -4 -2 -103 -3 -219 -1 -207
-1 -213 19 -214 11 0 95 -1 188 0 139 0 167 -2 168 -14 0 -8 1 -80 1 -160 0
-80 -1 -149 -1 -155 -1 -5 -60 -9 -143 -9 -79 0 -163 0 -188 0 l-45 -1 1 -212
c1 -117 2 -216 3 -219 0 -4 126 -7 279 -7 152 0 288 -1 302 -1 l25 -1 0 -168
0 -167 -380 0 c-371 1 -381 2 -430 23 -63 29 -111 82 -129 141 -11 37 -13 190
-12 801 l1 755 31 55 c37 65 98 108 170 118 48 7 732 7 739 1z m595 -24 c5
-16 23 -88 40 -160 18 -71 33 -136 36 -143 2 -7 4 -14 4 -17 1 -3 6 -19 12
-37 5 -18 11 -42 13 -53 1 -11 10 -45 19 -76 9 -31 18 -65 20 -75 3 -11 30
-116 61 -234 31 -118 58 -224 61 -235 2 -11 17 -69 33 -130 l29 -110 10 40
c23 85 114 441 117 455 2 8 29 112 60 230 32 118 58 222 60 230 5 23 55 211
65 245 5 17 11 43 14 59 3 16 7 31 10 33 6 6 366 7 371 1 3 -2 0 -21 -6 -41
-5 -20 -9 -38 -9 -39 1 -2 -4 -16 -10 -33 -7 -16 -13 -39 -15 -50 -2 -11 -13
-56 -25 -100 -12 -44 -23 -87 -25 -95 -2 -8 -29 -109 -60 -225 -31 -115 -58
-217 -60 -225 -2 -8 -16 -60 -30 -115 -15 -55 -29 -107 -30 -115 -2 -8 -4 -15
-5 -15 -1 0 -3 -7 -5 -15 -1 -8 -15 -60 -30 -115 -15 -55 -29 -107 -31 -115
-1 -8 -22 -85 -44 -170 -23 -85 -43 -163 -45 -173 -6 -29 -73 -133 -110 -171
-125 -129 -301 -87 -408 97 -21 36 -83 233 -102 324 -2 10 -28 110 -59 223
-89 334 -108 404 -113 429 -2 14 -6 28 -9 33 -3 4 -7 16 -9 26 -5 30 -125 485
-135 512 -5 14 -12 39 -16 55 -4 17 -8 35 -10 40 -18 68 -17 73 12 77 16 2
100 3 187 3 l157 0 10 -30z"/>
<path d="M1068 3162 l-28 -3 0 -596 0 -595 133 4 c91 3 140 9 157 19 117 68
113 48 113 579 l0 440 -24 47 c-20 39 -35 53 -79 75 -47 24 -70 28 -150 30
-52 2 -107 2 -122 0z"/>
</g>
</svg>
